<?xml version="1.0" encoding="UTF-8" standalone="no"?> <svg width="512" height="512" viewBox="0 0 512 512" fill="none" xmlns="http://www.w3.org/2000/svg">
<circle cx="256" cy="256" r="224" fill="#2A2FAF"/>
<path fill-rule="evenodd" clip-rule="evenodd" d="M74.957 124.086L442.593 379.996C439.527 384.601 436.294 389.086 432.905 393.442L65.6875 137.824C68.611 133.126 71.7037 128.544 74.957 124.086Z" fill="#E92B2B"/>
<path fill-rule="evenodd" clip-rule="evenodd" d="M79.9753 117.477L447.068 373.008C445.621 375.366 444.131 377.695 442.6 379.994L74.9638 124.084C76.5943 121.85 78.2652 119.647 79.9753 117.477ZM65.6943 137.822L432.911 393.44C431.21 395.627 429.469 397.781 427.69 399.901L61.4375 144.955C62.8134 142.549 64.2327 140.171 65.6943 137.822Z" fill="#FBFBFB"/>
<path fill-rule="evenodd" clip-rule="evenodd" d="M446.343 137.824L79.1263 393.442C75.7365 389.086 72.504 384.601 69.4375 379.996L437.074 124.086C440.327 128.544 443.42 133.126 446.343 137.824Z" fill="#E92B2B"/>
<path fill-rule="evenodd" clip-rule="evenodd" d="M446.311 137.822C447.773 140.171 449.192 142.549 450.568 144.955L84.3157 399.901C82.5362 397.781 80.7953 395.627 79.094 393.44L446.311 137.822ZM432.03 117.477C433.74 119.647 435.411 121.85 437.042 124.084L69.4052 379.994C67.8743 377.695 66.3847 375.366 64.9375 373.008L432.03 117.477Z" fill="#FBFBFB"/>
<path fill-rule="evenodd" clip-rule="evenodd" d="M82.8632 113.887L449.48 368.982C446.682 373.762 443.712 378.43 440.579 382.976L72.8125 127.082C76.0022 122.557 79.3553 118.156 82.8632 113.887Z" fill="#FBFBFB"/>
<path fill-rule="evenodd" clip-rule="evenodd" d="M439.199 127.082L71.4331 382.976C68.2993 378.43 65.3292 373.762 62.5312 368.982L429.148 113.887C432.656 118.156 436.009 122.557 439.199 127.082Z" fill="#FBFBFB"/>
<path fill-rule="evenodd" clip-rule="evenodd" d="M280 33.2706C272.115 32.4308 264.108 32 256 32C247.892 32 239.885 32.4308 232 33.2706V230.737H33.4088C32.478 239.029 32 247.459 32 256C32 264.541 32.478 272.971 33.4088 281.263H232V478.729C239.885 479.569 247.892 480 256 480C264.108 480 272.115 479.569 280 478.729V281.263H478.591C479.522 272.971 480 264.541 480 256C480 247.459 479.522 239.029 478.591 230.737H280V33.2706Z" fill="#E92B2B"/>
<path fill-rule="evenodd" clip-rule="evenodd" d="M34.5173 289.684C33.6803 284.134 33.0469 278.518 32.625 272.842H232.001H240.001V281.263V479.437C234.613 479.057 229.278 478.486 224.001 477.731V289.684H34.5173ZM288.001 477.731C282.725 478.486 277.39 479.057 272.001 479.437V281.263V272.842H280.001H479.378C478.956 278.518 478.322 284.134 477.485 289.684H288.001V477.731ZM477.485 222.316C478.322 227.866 478.956 233.482 479.378 239.158H280.001H272.001V230.737V32.5625C277.39 32.9428 282.725 33.5136 288.001 34.2683V222.316H477.485ZM240.001 32.5625V230.737V239.158H232.001H32.625C33.0469 233.482 33.6803 227.866 34.5173 222.316H224.001V34.2683C229.278 33.5136 234.613 32.9428 240.001 32.5625Z" fill="#FBFBFB"/>
</svg>
