<svg width="20" height="18" viewBox="0 0 20 18" fill="none" xmlns="http://www.w3.org/2000/svg">
<path fill-rule="evenodd" clip-rule="evenodd" d="M5.9596 0C2.36708 0 0 2.93148 0 5.67666C0 8.04458 1.27773 10.2598 3.0552 12.2426C4.83547 14.2285 7.14483 16.0123 9.26694 17.5187L10 18L10.7257 17.5238L10.733 17.5186C12.8539 16.013 15.1638 14.2535 16.9443 12.2795C18.7229 10.3077 20 8.09254 20 5.67666C20 2.92863 17.5316 0 14.0404 0C12.3675 0 10.9915 0.913591 10 1.8458C9.00852 0.913591 7.6325 0 5.9596 0ZM2.45873 5.57965C2.45873 4.23901 3.74758 2.32886 5.9596 2.32886C6.83115 2.32886 7.85107 2.93284 9.1224 4.37606L10 5.48715L10.8776 4.37607C12.1489 2.93284 13.1688 2.32886 14.0404 2.32886C16.3467 2.32886 17.5413 4.23439 17.5413 5.57965C17.5413 7.28329 16.5323 9.02124 15.0416 10.6696C13.5962 12.2679 11.7298 13.747 10 14.9849C8.2702 13.747 6.40385 12.2679 4.95837 10.6696C3.4677 9.02124 2.45873 7.28329 2.45873 5.57965Z" fill="#333333"/>
</svg>
